# xmcd
#
# Track frame offsets:
# 150
# 14730
# 33528
# 52361
#
# Disc length: 1156 seconds
#
#
# Revision: 0
# Processed by: cddbd v1.5.1PL0 Copyright (c) Steve Scherf et al.
# Submitted via: FreeRIP 2.941 
#
DISCID=38048204
DTITLE=ERA - Looking For Something EP
DYEAR=2003
DGENRE=
TTITLE0=Looking For Something (Radio Edit)
TTITLE1=Looking For Something (Original Album Version)
TTITLE2=Looking For Something (Instrumental)
TTITLE3=Looking For Something (Darren Tate Mix)
EXTD=
EXTT0=
EXTT1=
EXTT2=
EXTT3=
PLAYORDER=
